<mxfile host="app.diagrams.net" modified="2023-11-15T16:41:32.092Z" agent="Mozilla/5.0 (Macintosh; Intel Mac OS X 10_15_7) AppleWebKit/605.1.15 (KHTML, like Gecko) Version/16.4 Safari/605.1.15" etag="nYKHQrc9or3zj6_4wwuB" version="22.1.1" type="device">
  <diagram name="Page-1" id="5MV0TyKmVQTyjygQX7HI">
    <mxGraphModel dx="2021" dy="774" grid="1" gridSize="10" guides="1" tooltips="1" connect="1" arrows="1" fold="1" page="1" pageScale="1" pageWidth="827" pageHeight="1169" math="0" shadow="0">
      <root>
        <mxCell id="0" />
        <mxCell id="1" parent="0" />
        <mxCell id="KuN4PqBKFSqONFtKqjtZ-9" value="FrontEnd (Vue.js)" style="swimlane;whiteSpace=wrap;html=1;" parent="1" vertex="1">
          <mxGeometry x="-140" y="315" width="160" height="110" as="geometry" />
        </mxCell>
        <mxCell id="KuN4PqBKFSqONFtKqjtZ-10" value="" style="image;sketch=0;aspect=fixed;html=1;points=[];align=center;fontSize=12;image=img/lib/mscae/Cloud_Cycle.svg;" parent="KuN4PqBKFSqONFtKqjtZ-9" vertex="1">
          <mxGeometry x="55" y="40" width="50" height="46" as="geometry" />
        </mxCell>
        <mxCell id="KuN4PqBKFSqONFtKqjtZ-13" value="BackEnd (Typescript)" style="swimlane;whiteSpace=wrap;html=1;" parent="1" vertex="1">
          <mxGeometry x="220" y="60" width="780" height="680" as="geometry" />
        </mxCell>
        <mxCell id="KuN4PqBKFSqONFtKqjtZ-12" value="" style="image;sketch=0;aspect=fixed;html=1;points=[];align=center;fontSize=12;image=img/lib/mscae/Kubernetes.svg;" parent="KuN4PqBKFSqONFtKqjtZ-13" vertex="1">
          <mxGeometry x="660" y="40" width="100" height="96" as="geometry" />
        </mxCell>
        <mxCell id="pV4QA1mr4yRQWeSzRDIz-2" value="" style="group;fillColor=none;rounded=0;" vertex="1" connectable="0" parent="KuN4PqBKFSqONFtKqjtZ-13">
          <mxGeometry x="200" y="320" width="460" height="360" as="geometry" />
        </mxCell>
        <mxCell id="KuN4PqBKFSqONFtKqjtZ-32" value="" style="ellipse;whiteSpace=wrap;html=1;fillColor=none;strokeColor=#3399FF;" parent="pV4QA1mr4yRQWeSzRDIz-2" vertex="1">
          <mxGeometry x="20" width="380" height="330" as="geometry" />
        </mxCell>
        <mxCell id="KuN4PqBKFSqONFtKqjtZ-17" value="Configurator Service" style="swimlane;whiteSpace=wrap;html=1;strokeColor=#97D077;" parent="pV4QA1mr4yRQWeSzRDIz-2" vertex="1">
          <mxGeometry x="170" y="30" width="130" height="110" as="geometry" />
        </mxCell>
        <mxCell id="KuN4PqBKFSqONFtKqjtZ-11" value="" style="image;sketch=0;aspect=fixed;html=1;points=[];align=center;fontSize=12;image=img/lib/mscae/Docker.svg;" parent="KuN4PqBKFSqONFtKqjtZ-17" vertex="1">
          <mxGeometry x="40" y="43" width="50" height="41" as="geometry" />
        </mxCell>
        <mxCell id="KuN4PqBKFSqONFtKqjtZ-19" value="Sale Service" style="swimlane;whiteSpace=wrap;html=1;strokeColor=#97D077;" parent="pV4QA1mr4yRQWeSzRDIz-2" vertex="1">
          <mxGeometry x="170" y="160" width="140" height="100" as="geometry" />
        </mxCell>
        <mxCell id="KuN4PqBKFSqONFtKqjtZ-22" value="" style="image;sketch=0;aspect=fixed;html=1;points=[];align=center;fontSize=12;image=img/lib/mscae/Docker.svg;" parent="KuN4PqBKFSqONFtKqjtZ-19" vertex="1">
          <mxGeometry x="40" y="40" width="50" height="41" as="geometry" />
        </mxCell>
        <mxCell id="KuN4PqBKFSqONFtKqjtZ-33" value="&lt;font color=&quot;#007fff&quot;&gt;Namespace services&lt;/font&gt;" style="text;html=1;align=center;verticalAlign=middle;resizable=0;points=[];autosize=1;strokeColor=none;fillColor=none;" parent="pV4QA1mr4yRQWeSzRDIz-2" vertex="1">
          <mxGeometry x="165" y="330" width="130" height="30" as="geometry" />
        </mxCell>
        <mxCell id="VIjj7RyZspWgIhtf-TM6-1" value="" style="shadow=0;dashed=0;html=1;labelPosition=center;verticalLabelPosition=bottom;verticalAlign=top;align=center;outlineConnect=0;shape=mxgraph.veeam.3d.proxy;" parent="pV4QA1mr4yRQWeSzRDIz-2" vertex="1">
          <mxGeometry x="70" y="62" width="46" height="46" as="geometry" />
        </mxCell>
        <mxCell id="VIjj7RyZspWgIhtf-TM6-4" style="edgeStyle=orthogonalEdgeStyle;rounded=0;orthogonalLoop=1;jettySize=auto;html=1;endArrow=none;endFill=0;" parent="pV4QA1mr4yRQWeSzRDIz-2" source="KuN4PqBKFSqONFtKqjtZ-17" target="VIjj7RyZspWgIhtf-TM6-1" edge="1">
          <mxGeometry relative="1" as="geometry" />
        </mxCell>
        <mxCell id="VIjj7RyZspWgIhtf-TM6-2" value="" style="shadow=0;dashed=0;html=1;labelPosition=center;verticalLabelPosition=bottom;verticalAlign=top;align=center;outlineConnect=0;shape=mxgraph.veeam.3d.proxy;" parent="pV4QA1mr4yRQWeSzRDIz-2" vertex="1">
          <mxGeometry x="70" y="187" width="46" height="46" as="geometry" />
        </mxCell>
        <mxCell id="VIjj7RyZspWgIhtf-TM6-3" style="edgeStyle=orthogonalEdgeStyle;rounded=0;orthogonalLoop=1;jettySize=auto;html=1;endArrow=none;endFill=0;" parent="pV4QA1mr4yRQWeSzRDIz-2" source="KuN4PqBKFSqONFtKqjtZ-19" target="VIjj7RyZspWgIhtf-TM6-2" edge="1">
          <mxGeometry relative="1" as="geometry" />
        </mxCell>
        <mxCell id="VIjj7RyZspWgIhtf-TM6-5" style="rounded=0;orthogonalLoop=1;jettySize=auto;html=1;endArrow=none;endFill=0;" parent="pV4QA1mr4yRQWeSzRDIz-2" source="VIjj7RyZspWgIhtf-TM6-1" target="VIjj7RyZspWgIhtf-TM6-2" edge="1">
          <mxGeometry relative="1" as="geometry" />
        </mxCell>
        <mxCell id="VIjj7RyZspWgIhtf-TM6-7" value="proxy" style="text;html=1;align=center;verticalAlign=middle;resizable=0;points=[];autosize=1;strokeColor=none;fillColor=none;" parent="pV4QA1mr4yRQWeSzRDIz-2" vertex="1">
          <mxGeometry x="68" y="230" width="50" height="30" as="geometry" />
        </mxCell>
        <mxCell id="VIjj7RyZspWgIhtf-TM6-6" value="proxy" style="text;html=1;align=center;verticalAlign=middle;resizable=0;points=[];autosize=1;strokeColor=none;fillColor=none;" parent="pV4QA1mr4yRQWeSzRDIz-2" vertex="1">
          <mxGeometry x="90" y="40" width="50" height="30" as="geometry" />
        </mxCell>
        <mxCell id="pV4QA1mr4yRQWeSzRDIz-1" value="" style="group" vertex="1" connectable="0" parent="KuN4PqBKFSqONFtKqjtZ-13">
          <mxGeometry x="260" y="40" width="280" height="250" as="geometry" />
        </mxCell>
        <mxCell id="KuN4PqBKFSqONFtKqjtZ-34" value="" style="ellipse;whiteSpace=wrap;html=1;fillColor=none;strokeColor=#00CC00;" parent="pV4QA1mr4yRQWeSzRDIz-1" vertex="1">
          <mxGeometry x="10" width="280" height="220" as="geometry" />
        </mxCell>
        <mxCell id="KuN4PqBKFSqONFtKqjtZ-25" value="Database (mysql)" style="swimlane;whiteSpace=wrap;html=1;" parent="pV4QA1mr4yRQWeSzRDIz-1" vertex="1">
          <mxGeometry x="70" y="55" width="160" height="110" as="geometry" />
        </mxCell>
        <mxCell id="KuN4PqBKFSqONFtKqjtZ-35" value="&lt;font color=&quot;#00cc00&quot;&gt;Namespace data&lt;/font&gt;" style="text;html=1;align=center;verticalAlign=middle;resizable=0;points=[];autosize=1;strokeColor=none;fillColor=none;" parent="pV4QA1mr4yRQWeSzRDIz-1" vertex="1">
          <mxGeometry x="150" y="220" width="110" height="30" as="geometry" />
        </mxCell>
        <mxCell id="KuN4PqBKFSqONFtKqjtZ-36" value="" style="image;sketch=0;aspect=fixed;html=1;points=[];align=center;fontSize=12;image=img/lib/mscae/Docker.svg;" parent="pV4QA1mr4yRQWeSzRDIz-1" vertex="1">
          <mxGeometry x="90" y="100" width="50" height="41" as="geometry" />
        </mxCell>
        <mxCell id="KuN4PqBKFSqONFtKqjtZ-24" value="" style="sketch=0;outlineConnect=0;fontColor=#232F3E;gradientColor=none;fillColor=#C925D1;strokeColor=none;dashed=0;verticalLabelPosition=bottom;verticalAlign=top;align=center;html=1;fontSize=12;fontStyle=0;aspect=fixed;pointerEvents=1;shape=mxgraph.aws4.rds_mysql_instance;" parent="pV4QA1mr4yRQWeSzRDIz-1" vertex="1">
          <mxGeometry x="155" y="95.5" width="50" height="50" as="geometry" />
        </mxCell>
        <mxCell id="pV4QA1mr4yRQWeSzRDIz-31" style="edgeStyle=orthogonalEdgeStyle;rounded=0;orthogonalLoop=1;jettySize=auto;html=1;endArrow=none;endFill=0;" edge="1" parent="KuN4PqBKFSqONFtKqjtZ-13" source="KuN4PqBKFSqONFtKqjtZ-34" target="KuN4PqBKFSqONFtKqjtZ-32">
          <mxGeometry relative="1" as="geometry" />
        </mxCell>
        <mxCell id="pV4QA1mr4yRQWeSzRDIz-28" style="edgeStyle=orthogonalEdgeStyle;rounded=0;orthogonalLoop=1;jettySize=auto;html=1;endArrow=none;endFill=0;" edge="1" parent="1" source="pV4QA1mr4yRQWeSzRDIz-27" target="KuN4PqBKFSqONFtKqjtZ-9">
          <mxGeometry relative="1" as="geometry" />
        </mxCell>
        <mxCell id="pV4QA1mr4yRQWeSzRDIz-27" value="Ingress Gateway" style="rounded=0;whiteSpace=wrap;html=1;fillColor=#f8cecc;strokeColor=#b85450;" vertex="1" parent="1">
          <mxGeometry x="130" y="340" width="120" height="60" as="geometry" />
        </mxCell>
        <mxCell id="pV4QA1mr4yRQWeSzRDIz-29" style="edgeStyle=orthogonalEdgeStyle;rounded=0;orthogonalLoop=1;jettySize=auto;html=1;entryX=1;entryY=0.5;entryDx=0;entryDy=0;endArrow=none;endFill=0;" edge="1" parent="1" source="VIjj7RyZspWgIhtf-TM6-1" target="pV4QA1mr4yRQWeSzRDIz-27">
          <mxGeometry relative="1" as="geometry" />
        </mxCell>
        <mxCell id="pV4QA1mr4yRQWeSzRDIz-30" style="edgeStyle=orthogonalEdgeStyle;rounded=0;orthogonalLoop=1;jettySize=auto;html=1;endArrow=none;endFill=0;" edge="1" parent="1" source="VIjj7RyZspWgIhtf-TM6-2" target="pV4QA1mr4yRQWeSzRDIz-27">
          <mxGeometry relative="1" as="geometry">
            <Array as="points">
              <mxPoint x="330" y="590" />
              <mxPoint x="330" y="370" />
            </Array>
          </mxGeometry>
        </mxCell>
      </root>
    </mxGraphModel>
  </diagram>
</mxfile>
